<svg width="250" height="247" viewBox="0 0 250 247" fill="none" xmlns="http://www.w3.org/2000/svg">
<rect width="250" height="247" rx="50" transform="matrix(-1 0 0 1 250 0)" fill="#003C80"/>
<path d="M183.179 59.6139C182.293 58.8947 181.258 58.3839 180.149 58.1191C179.041 57.8542 177.887 57.842 176.774 58.0834C168.626 59.7971 160.215 59.8189 152.058 58.1475C143.902 56.4762 136.172 53.1469 129.346 48.3648C128.07 47.4762 126.553 47 125 47C123.447 47 121.93 47.4762 120.654 48.3648C113.828 53.1469 106.098 56.4762 97.9417 58.1475C89.7852 59.8189 81.3741 59.7971 73.2263 58.0834C72.1126 57.842 70.9591 57.8542 69.8507 58.1191C68.7423 58.3839 67.7071 58.8947 66.8213 59.6139C65.9366 60.3341 65.224 61.2441 64.7358 62.277C64.2476 63.3099 63.9962 64.4395 64 65.5827V122.593C63.9933 133.565 66.5984 144.379 71.5986 154.136C76.5988 163.893 83.8493 172.309 92.7463 178.685L120.578 198.581C121.869 199.504 123.415 200 125 200C126.585 200 128.131 199.504 129.423 198.581L157.254 178.685C166.151 172.309 173.401 163.893 178.401 154.136C183.402 144.379 186.007 133.565 186 122.593V65.5827C186.004 64.4395 185.752 63.3099 185.264 62.277C184.776 61.2441 184.063 60.3341 183.179 59.6139ZM170.75 122.593C170.756 131.124 168.732 139.532 164.846 147.119C160.96 154.706 155.324 161.252 148.409 166.212L125 182.97L101.591 166.212C94.6757 161.252 89.0404 154.706 85.1544 147.119C81.2685 139.532 79.2442 131.124 79.25 122.593V74.383C95.2353 75.7561 111.245 72.0339 125 63.7462C138.755 72.0339 154.765 75.7561 170.75 74.383V122.593Z" fill="white"/>
</svg>
